<mxfile host="app.diagrams.net" modified="2024-01-25T00:44:18.933Z" agent="Mozilla/5.0 (Windows NT 10.0; Win64; x64) AppleWebKit/537.36 (KHTML, like Gecko) Chrome/120.0.0.0 Safari/537.36 Edg/120.0.0.0" etag="yR3UVcsbwCyqZ8wl46Qx" version="22.1.18" type="device">
  <diagram name="PÃ¡gina-1" id="bybJRLf_hmduXNsllziC">
    <mxGraphModel dx="1530" dy="647" grid="0" gridSize="10" guides="1" tooltips="1" connect="1" arrows="1" fold="1" page="0" pageScale="1" pageWidth="827" pageHeight="1169" math="0" shadow="0">
      <root>
        <mxCell id="0" />
        <mxCell id="1" parent="0" />
        <mxCell id="CBG3Y4EUbtfpd0Gq1Afy-13" value="" style="rounded=0;whiteSpace=wrap;html=1;dashed=1;fillColor=none;dashPattern=8 8;strokeColor=#6C8EBF;fontStyle=1;strokeWidth=2;" vertex="1" parent="1">
          <mxGeometry x="250" y="210" width="340" height="380" as="geometry" />
        </mxCell>
        <mxCell id="CBG3Y4EUbtfpd0Gq1Afy-1" value="" style="image;aspect=fixed;html=1;points=[];align=center;fontSize=12;image=img/lib/azure2/databases/SQL_Database.svg;" vertex="1" parent="1">
          <mxGeometry x="280.5" y="240" width="48" height="64" as="geometry" />
        </mxCell>
        <mxCell id="CBG3Y4EUbtfpd0Gq1Afy-2" value="" style="image;aspect=fixed;html=1;points=[];align=center;fontSize=12;image=img/lib/azure2/storage/Storage_Accounts.svg;" vertex="1" parent="1">
          <mxGeometry x="390" y="246" width="65" height="52" as="geometry" />
        </mxCell>
        <mxCell id="CBG3Y4EUbtfpd0Gq1Afy-12" style="edgeStyle=orthogonalEdgeStyle;rounded=0;orthogonalLoop=1;jettySize=auto;html=1;dashed=1;strokeWidth=2;strokeColor=#6C8EBF;" edge="1" parent="1" source="CBG3Y4EUbtfpd0Gq1Afy-4" target="CBG3Y4EUbtfpd0Gq1Afy-9">
          <mxGeometry relative="1" as="geometry">
            <Array as="points">
              <mxPoint x="514" y="480" />
              <mxPoint x="514" y="480" />
            </Array>
          </mxGeometry>
        </mxCell>
        <mxCell id="CBG3Y4EUbtfpd0Gq1Afy-4" value="" style="image;aspect=fixed;html=1;points=[];align=center;fontSize=12;image=img/lib/azure2/iot/Event_Hubs.svg;" vertex="1" parent="1">
          <mxGeometry x="480" y="362" width="67" height="60" as="geometry" />
        </mxCell>
        <mxCell id="CBG3Y4EUbtfpd0Gq1Afy-33" style="edgeStyle=orthogonalEdgeStyle;rounded=0;orthogonalLoop=1;jettySize=auto;html=1;startArrow=classic;startFill=1;fillColor=#e1d5e7;strokeColor=#9673a6;strokeWidth=2;" edge="1" parent="1" source="CBG3Y4EUbtfpd0Gq1Afy-5" target="CBG3Y4EUbtfpd0Gq1Afy-10">
          <mxGeometry relative="1" as="geometry" />
        </mxCell>
        <mxCell id="CBG3Y4EUbtfpd0Gq1Afy-5" value="" style="image;aspect=fixed;html=1;points=[];align=center;fontSize=12;image=img/lib/azure2/identity/Users.svg;" vertex="1" parent="1">
          <mxGeometry x="-250" y="357" width="64" height="70" as="geometry" />
        </mxCell>
        <mxCell id="CBG3Y4EUbtfpd0Gq1Afy-7" value="" style="image;aspect=fixed;html=1;points=[];align=center;fontSize=12;image=img/lib/azure2/general/Resource_Groups.svg;" vertex="1" parent="1">
          <mxGeometry x="250" y="160" width="42.5" height="40" as="geometry" />
        </mxCell>
        <mxCell id="CBG3Y4EUbtfpd0Gq1Afy-11" style="edgeStyle=orthogonalEdgeStyle;rounded=0;orthogonalLoop=1;jettySize=auto;html=1;fontColor=#6C8EBF;strokeColor=#6C8EBF;strokeWidth=2;dashed=1;" edge="1" parent="1" source="CBG3Y4EUbtfpd0Gq1Afy-8" target="CBG3Y4EUbtfpd0Gq1Afy-4">
          <mxGeometry relative="1" as="geometry" />
        </mxCell>
        <mxCell id="CBG3Y4EUbtfpd0Gq1Afy-17" style="edgeStyle=orthogonalEdgeStyle;rounded=0;orthogonalLoop=1;jettySize=auto;html=1;fillColor=#dae8fc;strokeColor=#6C8EBF;strokeWidth=2;dashed=1;" edge="1" parent="1" source="CBG3Y4EUbtfpd0Gq1Afy-8" target="CBG3Y4EUbtfpd0Gq1Afy-1">
          <mxGeometry relative="1" as="geometry">
            <Array as="points">
              <mxPoint x="361" y="330" />
              <mxPoint x="305" y="330" />
            </Array>
          </mxGeometry>
        </mxCell>
        <mxCell id="CBG3Y4EUbtfpd0Gq1Afy-8" value="" style="image;aspect=fixed;html=1;points=[];align=center;fontSize=12;image=img/lib/azure2/containers/App_Services.svg;direction=south;" vertex="1" parent="1">
          <mxGeometry x="328.5" y="360" width="64" height="64" as="geometry" />
        </mxCell>
        <mxCell id="CBG3Y4EUbtfpd0Gq1Afy-9" value="" style="image;aspect=fixed;html=1;points=[];align=center;fontSize=12;image=img/lib/azure2/compute/App_Services.svg;" vertex="1" parent="1">
          <mxGeometry x="480" y="490" width="64" height="64" as="geometry" />
        </mxCell>
        <mxCell id="CBG3Y4EUbtfpd0Gq1Afy-25" style="edgeStyle=orthogonalEdgeStyle;rounded=0;orthogonalLoop=1;jettySize=auto;html=1;entryX=0;entryY=0.5;entryDx=0;entryDy=0;startArrow=classic;startFill=1;fillColor=#d5e8d4;strokeColor=#67AB9F;dashed=1;strokeWidth=2;" edge="1" parent="1" source="CBG3Y4EUbtfpd0Gq1Afy-10" target="CBG3Y4EUbtfpd0Gq1Afy-23">
          <mxGeometry relative="1" as="geometry">
            <Array as="points">
              <mxPoint x="-10" y="245" />
            </Array>
          </mxGeometry>
        </mxCell>
        <mxCell id="CBG3Y4EUbtfpd0Gq1Afy-30" style="edgeStyle=orthogonalEdgeStyle;rounded=0;orthogonalLoop=1;jettySize=auto;html=1;strokeWidth=2;startArrow=classic;startFill=1;strokeColor=#67AB9F;dashed=1;" edge="1" parent="1" source="CBG3Y4EUbtfpd0Gq1Afy-10" target="CBG3Y4EUbtfpd0Gq1Afy-24">
          <mxGeometry relative="1" as="geometry" />
        </mxCell>
        <mxCell id="CBG3Y4EUbtfpd0Gq1Afy-10" value="" style="image;aspect=fixed;html=1;points=[];align=center;fontSize=12;image=img/lib/azure2/app_services/App_Service_Domains.svg;" vertex="1" parent="1">
          <mxGeometry x="-50" y="357" width="87.5" height="70" as="geometry" />
        </mxCell>
        <mxCell id="CBG3Y4EUbtfpd0Gq1Afy-14" value="TAD Resource Group" style="text;html=1;align=center;verticalAlign=middle;resizable=0;points=[];autosize=1;strokeColor=none;fillColor=none;fontSize=20;fontColor=#6C8EBF;fontStyle=1" vertex="1" parent="1">
          <mxGeometry x="280.5" y="160" width="230" height="40" as="geometry" />
        </mxCell>
        <mxCell id="CBG3Y4EUbtfpd0Gq1Afy-18" style="edgeStyle=orthogonalEdgeStyle;rounded=0;orthogonalLoop=1;jettySize=auto;html=1;entryX=0.53;entryY=1.105;entryDx=0;entryDy=0;entryPerimeter=0;dashed=1;fontColor=#7EA6E0;strokeColor=#6C8EBF;strokeWidth=2;" edge="1" parent="1" source="CBG3Y4EUbtfpd0Gq1Afy-8" target="CBG3Y4EUbtfpd0Gq1Afy-2">
          <mxGeometry relative="1" as="geometry">
            <Array as="points">
              <mxPoint x="361" y="330" />
              <mxPoint x="425" y="330" />
            </Array>
          </mxGeometry>
        </mxCell>
        <mxCell id="CBG3Y4EUbtfpd0Gq1Afy-19" value="Blob Storage" style="text;html=1;align=center;verticalAlign=middle;resizable=0;points=[];autosize=1;strokeColor=none;fillColor=none;fontSize=13;fontColor=#6C8EBF;fontStyle=1" vertex="1" parent="1">
          <mxGeometry x="372.5" y="220" width="100" height="30" as="geometry" />
        </mxCell>
        <mxCell id="CBG3Y4EUbtfpd0Gq1Afy-20" value="Azure Service Bus" style="text;html=1;align=center;verticalAlign=middle;resizable=0;points=[];autosize=1;strokeColor=none;fillColor=none;fontSize=13;fontColor=#6C8EBF;fontStyle=1" vertex="1" parent="1">
          <mxGeometry x="442" y="335" width="140" height="30" as="geometry" />
        </mxCell>
        <mxCell id="CBG3Y4EUbtfpd0Gq1Afy-21" value="campground-api" style="text;html=1;align=center;verticalAlign=middle;resizable=0;points=[];autosize=1;strokeColor=none;fillColor=none;fontSize=13;fontColor=#6C8EBF;fontStyle=1" vertex="1" parent="1">
          <mxGeometry x="295.5" y="422" width="130" height="30" as="geometry" />
        </mxCell>
        <mxCell id="CBG3Y4EUbtfpd0Gq1Afy-22" value="ms-correo" style="text;html=1;align=center;verticalAlign=middle;resizable=0;points=[];autosize=1;strokeColor=none;fillColor=none;fontSize=13;fontColor=#6C8EBF;fontStyle=1" vertex="1" parent="1">
          <mxGeometry x="467" y="554" width="90" height="30" as="geometry" />
        </mxCell>
        <mxCell id="CBG3Y4EUbtfpd0Gq1Afy-32" style="edgeStyle=orthogonalEdgeStyle;rounded=0;orthogonalLoop=1;jettySize=auto;html=1;dashed=1;startArrow=classic;startFill=1;strokeColor=#67AB9F;strokeWidth=2;" edge="1" parent="1" source="CBG3Y4EUbtfpd0Gq1Afy-23" target="CBG3Y4EUbtfpd0Gq1Afy-24">
          <mxGeometry relative="1" as="geometry">
            <Array as="points">
              <mxPoint x="148" y="392" />
            </Array>
          </mxGeometry>
        </mxCell>
        <mxCell id="CBG3Y4EUbtfpd0Gq1Afy-23" value="Cloud&#xa;IAM" style="sketch=0;html=1;verticalAlign=bottom;labelPosition=center;verticalLabelPosition=top;align=center;spacingTop=-6;fontSize=11;fontStyle=1;fontColor=#999999;shape=image;aspect=fixed;imageAspect=0;image=data:image/svg+xml,PHN2ZyB4bWxucz0iaHR0cDovL3d3dy53My5vcmcvMjAwMC9zdmciIHhtbG5zOnY9Imh0dHBzOi8vdmVjdGEuaW8vbmFubyIgd2lkdGg9IjE2LjQyMDAwMDA3NjI5Mzk0NSIgaGVpZ2h0PSIyMC4wNDk5OTkyMzcwNjA1NDciIGZpbGwtcnVsZT0iZXZlbm9kZCIgdmlld0JveD0iMCAwIDE2LjQyMDAwMDA3NjI5Mzk0NSAyMC4wNDk5OTkyMzcwNjA1NDciPiYjeGE7CTxzdHlsZSB0eXBlPSJ0ZXh0L2NzcyI+JiN4YTsJLnN0MHtmaWxsOiM0Mjg1ZjQ7fSYjeGE7CS5zdDF7ZmlsbDojNjY5ZGY2O30mI3hhOwk8L3N0eWxlPiYjeGE7CTxwYXRoIGNsYXNzPSJzdDEiIGQ9Ik04LjIxIDBMMCAzLjQydjUuNjNjMCA1LjA2IDMuNSA5LjggOC4yMSAxMSA0LjcxLTEuMTUgOC4yMS01Ljg5IDguMjEtMTAuOTVWMy40MnptMCAzLjc5YTIuNjMgMi42MyAwIDAgMSAxLjAwNSA1LjA2QTIuNjMgMi42MyAwIDAgMSA2LjM1IDQuNTZhMi42MyAyLjYzIDAgMCAxIDEuODYtLjc3em00LjExIDExLjE1YTguNjQgOC42NCAwIDAgMS00LjExIDIuOTMgOC42NCA4LjY0IDAgMCAxLTQuMTEtMi45M3YtMi4yNWMwLTEuNjcgMi43NC0yLjUyIDQuMTEtMi41MnM0LjExLjg1IDQuMTEgMi41MnoiLz4mI3hhOwk8cGF0aCBjbGFzcz0ic3QwIiBkPSJNOC4yMSAwdjMuNzlhMi42MyAyLjYzIDAgMSAxIDAgNS4yNnYxLjEyYzEuMzcgMCA0LjExLjg1IDQuMTEgMi41MnYyLjI1YTguNjQgOC42NCAwIDAgMS00LjExIDIuOTNWMjBjNC43MS0xLjE1IDguMjEtNS44OSA4LjIxLTEwLjk1VjMuNDJ6Ii8+JiN4YTs8L3N2Zz4=;" vertex="1" parent="1">
          <mxGeometry x="120" y="210" width="56.67" height="70" as="geometry" />
        </mxCell>
        <mxCell id="CBG3Y4EUbtfpd0Gq1Afy-28" style="edgeStyle=orthogonalEdgeStyle;rounded=0;orthogonalLoop=1;jettySize=auto;html=1;dashed=1;strokeWidth=2;strokeColor=#6C8EBF;startArrow=classic;startFill=1;" edge="1" parent="1" source="CBG3Y4EUbtfpd0Gq1Afy-24" target="CBG3Y4EUbtfpd0Gq1Afy-8">
          <mxGeometry relative="1" as="geometry" />
        </mxCell>
        <mxCell id="CBG3Y4EUbtfpd0Gq1Afy-24" value="" style="image;aspect=fixed;html=1;points=[];align=center;fontSize=12;image=img/lib/azure2/security/Conditional_Access.svg;" vertex="1" parent="1">
          <mxGeometry x="225" y="362" width="49.41" height="60" as="geometry" />
        </mxCell>
        <mxCell id="CBG3Y4EUbtfpd0Gq1Afy-27" value="access token" style="text;html=1;align=center;verticalAlign=middle;resizable=0;points=[];autosize=1;strokeColor=none;fillColor=none;fontSize=13;fontColor=#67AB9F;fontStyle=1" vertex="1" parent="1">
          <mxGeometry x="-10" y="250" width="110" height="30" as="geometry" />
        </mxCell>
        <mxCell id="CBG3Y4EUbtfpd0Gq1Afy-31" value="JWT" style="text;html=1;align=center;verticalAlign=middle;resizable=0;points=[];autosize=1;strokeColor=none;fillColor=none;fontSize=13;fontColor=#67AB9F;fontStyle=1" vertex="1" parent="1">
          <mxGeometry x="123.34" y="394" width="50" height="30" as="geometry" />
        </mxCell>
        <mxCell id="CBG3Y4EUbtfpd0Gq1Afy-34" value="" style="shape=image;verticalLabelPosition=bottom;labelBackgroundColor=default;verticalAlign=top;aspect=fixed;imageAspect=0;image=https://smlpoints.com/wp-content/uploads/guide-dotnet-vue-mvc-with-web-api-developmemt-1.png;" vertex="1" parent="1">
          <mxGeometry x="328.5" y="486" width="68" height="68" as="geometry" />
        </mxCell>
        <mxCell id="CBG3Y4EUbtfpd0Gq1Afy-36" value="" style="shape=image;verticalLabelPosition=bottom;labelBackgroundColor=default;verticalAlign=top;aspect=fixed;imageAspect=0;image=https://pluspng.com/img-png/react-logo-png-react-js-logo-history-design-history-and-evolution-5500x3094.png;" vertex="1" parent="1">
          <mxGeometry x="-86.25" y="410" width="160" height="90" as="geometry" />
        </mxCell>
      </root>
    </mxGraphModel>
  </diagram>
</mxfile>
